<svg xmlns="http://www.w3.org/2000/svg" viewBox="0 0 100 100" height="100" width="100">
<style>
	circle,rect,path{stroke-linecap:round;stroke-linejoin:round}
	.a{paint-order:stroke fill markers}
	.b{fill:none}
	.c{stroke:#777}
	.d{stroke-width:4}
</style>
<circle class="a b" cx="50" cy="50" r="46.5" stroke="#fc3" stroke-width="7"/>
<circle class="a b" cx="50" cy="50" r="49.5" stroke="#555"/>
<rect class="a c d" width="11" height="11" x="44.5" y="72" rx="2" ry="2" fill="#39e" />
<rect class="a c d" width="11" height="11" x="44.5" y="59" rx="2" ry="2" fill="#5d2"/>
<rect class="a c d" width="11" height="11" x="44.5" y="46" rx="2" ry="2" fill="#f81"/>
<path class="b c" d="M63.466 35.222l13.882 7.717M60.39 39.848c2.828 3.125 6.235 6.59 9.707 10.36M65.324 29.943c4.088 1.028 10.465 2.804 15.425 4.095M36.534 35.222L22.652 42.94M39.61 39.848c-2.828 3.125-6.235 6.59-9.707 10.36M34.676 29.943c-4.088 1.028-10.465 2.804-15.425 4.095" stroke-width="2"/>
<circle class="a c d" cx="50" cy="27" r="8" fill="#d22"/>
</svg>